<?xml version="1.0" encoding="utf-8"?>
<!-- Generator: Adobe Illustrator 16.0.0, SVG Export Plug-In . SVG Version: 6.00 Build 0)  -->
<!DOCTYPE svg PUBLIC "-//W3C//DTD SVG 1.1//EN" "http://www.w3.org/Graphics/SVG/1.1/DTD/svg11.dtd">
<svg version="1.1" id="Ebene_1" xmlns="http://www.w3.org/2000/svg" xmlns:xlink="http://www.w3.org/1999/xlink" x="0px" y="0px"
	 width="94px" height="94px" viewBox="0 0 94 94" enable-background="new 0 0 94 94" xml:space="preserve">
<g>
	<g>
		<path d="M15.057,92.424V72.513h6.366l4.495,13.484h0.056l4.294-13.484h6.366v19.911H32.4V78.447h-0.055l-4.756,13.977h-3.486
			l-4.756-13.861h-0.055v13.861H15.057z"/>
		<path d="M47.107,83.232h2.217v-0.576c0-1.961-0.662-2.824-2.508-2.824c-1.615,0-2.448,0.547-2.594,1.785h-4.059
			c0.146-2.909,2.709-4.524,6.858-4.524c4.409,0,6.396,1.815,6.396,5.85v9.481H49.73l-0.23-1.932h-0.061
			c-0.662,1.354-2.247,2.333-4.58,2.333c-3.141,0-5.157-1.7-5.157-4.726C39.702,84.758,42.351,83.232,47.107,83.232z M46.128,89.8
			c1.872,0,3.2-1.153,3.2-3.171V85.65h-1.67c-2.508,0-3.833,0.607-3.833,2.133C43.821,89.138,44.714,89.8,46.128,89.8z"/>
		<path d="M57.045,77.524h3.889v2.765h0.06c0.692-1.932,2.308-3.17,4.294-3.17c0.461,0,0.863,0.055,1.209,0.145v3.832
			c-0.26-0.085-0.691-0.145-1.269-0.145c-2.739,0-4.093,1.871-4.093,4.756v6.712h-4.094V77.524H57.045z"/>
		<path d="M69.667,80.264v-2.739h2.393V73.06h4.093v4.465h2.91v2.739h-2.91v6.57c0,2.077,0.577,2.594,1.902,2.594
			c0.375,0,0.747-0.055,1.094-0.145v3.141c-0.547,0.17-1.209,0.26-1.932,0.26c-3.316,0-5.157-1.5-5.157-5.332v-7.088H69.667z"/>
	</g>
	<path fill="#008ECC" d="M47.004,1.513c-17.646,0-31.947,14.305-31.947,31.947c0,17.642,14.305,31.946,31.947,31.946
		c17.646,0,31.951-14.305,31.951-31.946C78.955,15.817,64.65,1.513,47.004,1.513"/>
	<path fill="#FFFFFF" d="M37.63,20.783h-1.068c-2.021,0-3.123,1.141-3.123,3.418v10.994c0,2.833-0.957,3.824-3.2,3.824
		c-1.765,0-3.201-0.773-4.337-2.17c-0.111-0.146-2.427,0.957-2.427,3.674c0,2.94,2.756,4.743,7.866,4.743
		c6.213,0,9.485-3.123,9.485-9.964V24.201C40.826,21.923,39.724,20.783,37.63,20.783 M47.256,26.333h-0.735
		c-1.803,0-3.162,0.846-3.162,3.418v11.767c0,2.611,1.324,3.418,3.234,3.418h0.735c1.804,0,3.089-0.885,3.089-3.418V29.755
		C50.418,27.106,49.166,26.333,47.256,26.333 M46.851,17.805c-2.282,0-3.713,1.286-3.713,3.307c0,2.06,1.47,3.346,3.824,3.346
		c2.277,0,3.712-1.286,3.712-3.346C50.674,19.056,49.205,17.805,46.851,17.805 M62.387,26.149c-6.029,0-10.037,3.824-10.037,9.524
		c0,5.845,3.857,9.597,9.926,9.597c6.028,0,10.002-3.751,10.002-9.558C72.277,29.973,68.342,26.149,62.387,26.149 M62.313,39.865
		c-2.354,0-3.97-1.727-3.97-4.192c0-2.427,1.654-4.153,3.97-4.153s3.97,1.726,3.97,4.191C66.283,38.1,64.596,39.865,62.313,39.865"
		/>
</g>
</svg>
